<svg xmlns="http://www.w3.org/2000/svg" xmlns:xlink="http://www.w3.org/1999/xlink" version="1.1" enable-background="new 0 0 122.627 97.5" xml:space="preserve" width="122.627" height="97.5"><rect id="backgroundrect" width="100%" height="100%" x="0" y="0" fill="none" stroke="none"/>

<g class="currentLayer" style=""><title>Layer 1</title><path d="M68.156,95.99c1.012,0.973,2.367,1.51,3.813,1.51c1.448,0,2.804-0.537,3.816-1.511l45.3-43.63  c1-0.961,1.547-2.244,1.543-3.611c0.004-1.37-0.543-2.648-1.543-3.611L75.784,1.51C74.773,0.536,73.418,0,71.969,0  c-1.444,0-2.798,0.538-3.813,1.515l-4.111,3.962c-0.997,0.96-1.545,2.244-1.545,3.614c0,1.377,0.548,2.664,1.545,3.623l29.1,28.089  L5.562,40.805C2.495,40.805,0,43.047,0,45.804v5.604c0,2.817,2.555,5.288,5.468,5.288h87.989L64.042,84.928  c-1.023,0.985-1.543,2.165-1.543,3.506c0,1.36,0.548,2.636,1.543,3.593L68.156,95.99z" id="svg_1" class="" transform="rotate(-179.99951171875 61.31401443481445,48.74999999999999) "/></g></svg>