<?xml version="1.0" encoding="utf-8"?>
<!-- Generator: Adobe Illustrator 24.2.1, SVG Export Plug-In . SVG Version: 6.00 Build 0)  -->
<svg version="1.1" xmlns="http://www.w3.org/2000/svg" xmlns:xlink="http://www.w3.org/1999/xlink" x="0px" y="0px"
	 viewBox="0 0 512 512" enable-background="new 0 0 512 512" xml:space="preserve">
<path d="M498.909,110.545C507.637,101.818,512,91.159,512,78.545c0-12.591-4.363-23.75-13.091-33.455L466.91,13.091
	C457.205,4.363,446.046,0,433.455,0c-12.614,0-23.273,4.363-32,13.091L256,158.545L110.545,13.091C101.819,4.363,91.137,0,78.546,0
	C65.932,0,54.773,4.363,45.091,13.091L13.092,45.09C4.364,54.795,0,65.954,0,78.545c0,12.614,4.364,23.273,13.092,32.001
	L158.546,256L13.092,401.455C4.364,410.181,0,420.863,0,433.454c0,12.614,4.364,23.773,13.092,33.455l31.999,31.999
	C54.773,507.636,65.932,512,78.546,512c12.591,0,23.273-4.364,31.999-13.092L256,353.454l145.455,145.455
	c8.728,8.728,19.387,13.092,32,13.092c12.591,0,23.75-4.364,33.455-13.092l31.999-31.999c8.728-9.681,13.091-20.841,13.091-33.455
	c0-12.591-4.363-23.273-13.091-31.999L353.455,256L498.909,110.545z"/>
</svg>
