<svg xmlns="http://www.w3.org/2000/svg" xmlns:svgjs="http://svgjs.com/svgjs" xmlns:xlink="http://www.w3.org/1999/xlink" width="288" height="288"><svg xmlns="http://www.w3.org/2000/svg" width="288" height="288" enable-background="new 0 0 512 512" viewBox="0 0 512 512"><path fill="#fff" d="M512,438.635c0-7.253-2.311-14.151-6.682-19.949l-0.11-0.146l0.109-0.144c4.372-5.797,6.683-12.695,6.683-19.95
	c0-7.253-2.311-14.151-6.685-19.951l-0.109-0.144l0.108-0.143c4.374-5.792,6.685-12.691,6.685-19.95
	c0-18.294-14.884-33.177-33.179-33.177h-54.379l0.088-0.307c5.169-17.948,7.095-38.702,7.095-47.567v-10.041
	c0-23.835-19.391-43.226-43.227-43.226H378.35c-6.015,0-11.234,4.075-12.693,9.91l-5.473,21.896
	c-6.789,27.137-28.23,59.874-52.36,67.682l-0.196,0.064l-0.093-0.185c-5.642-11.3-17.007-18.321-29.657-18.321h-60.283
	c-7.215,0-13.084,5.869-13.084,13.084v180.846c0,7.215,5.869,13.084,13.084,13.084h60.283c11.666,0,22.62-6.267,28.586-16.356
	l0.1-0.169l32.081,10.694c11.596,3.869,23.678,5.83,35.912,5.83h84.166c18.296,0,33.179-14.884,33.179-33.179
	c0-3.048-0.413-6.066-1.228-8.965l-0.059-0.211l0.202-0.078C503.488,464.646,512,452.216,512,438.635z M284.891,478.822
	c0,3.865-3.144,7.011-7.01,7.011h-47.197V331.155h47.197c3.865,0,7.01,3.144,7.01,7.009V478.822z M458.727,391.438h20.096
	c3.865,0,7.01,3.144,7.01,7.009s-3.144,7.01-7.01,7.01h-20.096c-7.214,0-13.083,5.869-13.083,13.083
	c0,7.215,5.869,13.085,13.083,13.085h20.096c3.865,0,7.01,3.144,7.01,7.01c0,3.865-3.144,7.01-7.01,7.01h-20.096
	c-7.214,0-13.083,5.869-13.083,13.083c0,7.215,5.869,13.085,13.083,13.085c3.865,0,7.01,3.144,7.01,7.009s-3.144,7.011-7.01,7.011
	h-84.165c-9.416,0-18.716-1.51-27.641-4.486l-35.86-11.953V349.719l0.184-0.044c15.472-3.695,30.757-13.984,44.202-29.757
	c13.89-16.299,25.152-37.916,30.127-57.825l2.994-11.987l0.192,0.004c9.206,0.193,16.697,7.843,16.697,17.053v10.041
	c0,12.271-3.717,35.791-8.51,47.722l-0.061,0.152h-18.532c-7.215,0-13.084,5.869-13.084,13.083c0,7.215,5.869,13.085,13.084,13.085
	h100.471c3.865,0,7.01,3.144,7.01,7.009s-3.144,7.01-7.01,7.01H458.73c-7.215,0-13.084,5.869-13.084,13.083
	C445.644,385.566,451.514,391.438,458.727,391.438z M28.98,215.875c0-102.797,83.631-186.429,186.428-186.429
	c93.4,0,171.768,70.049,184.579,160.358c11.023,1.644,21.292,5.608,30.318,11.36c-3.505-51.801-25.468-100.147-62.756-137.433
	C326.756,22.934,272.723,0.466,215.407,0.466c-57.315,0-111.347,22.468-152.143,63.265C22.468,104.527,0,158.559,0,215.875
	s22.468,111.348,63.265,152.143c29.757,29.758,66.148,49.675,106.246,58.347v-29.797C87.995,375.907,28.98,301.866,28.98,215.875z
	 M254.189,270.358c0-7.076-5.699-12.775-12.775-12.775H192.18v-20.146h32.037v-0.001c21.522-0.295,38.425-5.798,50.414-16.314
	c11.988-10.614,18.082-25.354,18.082-43.83c-0.196-18.769-6.486-33.313-19.163-44.221c-12.48-11.006-29.678-16.509-50.905-16.509
	h-49.824c-6.977,0-12.775,5.699-12.775,12.775v82.746h-16.707c-6.977,0-12.775,5.699-12.775,12.677
	c0,6.977,5.7,12.775,12.775,12.775h16.805v20.048h-16.805c-6.977,0-12.775,5.7-12.775,12.775c0,7.076,5.7,12.775,12.775,12.775
	h16.805v18.18c0,6.977,5.699,12.775,12.775,12.775h6.486c6.977,0,12.775-5.699,12.775-12.775v-18.18h49.234
	C248.391,283.133,254.189,277.434,254.189,270.358z M191.983,211.885v-70.068h32.037c11.4,0.295,20.44,3.735,26.828,10.22
	c6.486,6.585,9.729,15.036,9.729,25.157c0.098,11.4-3.242,20.049-9.925,25.945c-6.683,5.798-16.314,8.746-28.598,8.746H191.983z" class="color000 svgShape"/></svg></svg>