<svg xmlns="http://www.w3.org/2000/svg" xmlns:svgjs="http://svgjs.com/svgjs" xmlns:xlink="http://www.w3.org/1999/xlink" width="288" height="288"><svg xmlns="http://www.w3.org/2000/svg" width="288" height="288" enable-background="new 0 0 512 512" viewBox="0 0 512 512"><path fill="#fff" d="M481.452,275.606c-18.555-6.282-38.237-0.284-50.139,15.277l-57.952,75.784l0.081-3.533
	c0.009-0.238,0.017-0.477,0.017-0.719c0-27.125-22.068-49.192-49.192-49.192h-99.989l-0.281-0.239
	c-31.433-26.741-75.436-31.754-112.099-12.776l-1.466,0.759v-3.806c0-7.75-6.305-14.055-14.055-14.055H14.055
	C6.305,283.106,0,289.411,0,297.161v200.784C0,505.695,6.305,512,14.055,512h82.322c7.75,0,14.055-6.305,14.055-14.055v-16.063
	h247.832c35.692,0,68.525-17.924,87.826-47.949l58.767-91.418c4.673-7.265,7.142-15.674,7.142-24.318
	C512,298.606,500.01,281.887,481.452,275.606z M82.322,483.89H28.11V311.216h54.212C82.322,311.216,82.322,483.89,82.322,483.89z
	 M481.212,327.316l-58.769,91.418c-14.104,21.94-38.096,35.039-64.179,35.039H110.431V334.511l5.457-3.897
	c28.643-20.461,67.85-17.602,93.225,6.796c2.631,2.53,6.091,3.925,9.741,3.925h105.412c11.625,0,21.082,9.458,21.082,21.082
	s-9.458,21.082-21.082,21.082h-107.42c-7.75,0-14.055,6.305-14.055,14.055s6.305,14.055,14.055,14.055h120.822
	c22.988,0,45.049-10.902,59.013-29.163l56.961-74.485c6.812-8.909,16.108-6.636,18.796-5.727c2.687,0.91,11.452,4.751,11.452,15.968
	C483.89,321.439,482.964,324.591,481.212,327.316z M94.624,230.529l23.485,4.005l1.203,3.346c1.736,4.826,3.76,9.631,6.016,14.281
	l1.554,3.208c10.07-2.362,20.416-3.578,30.788-3.621c-0.327-0.981-0.754-1.922-1.275-2.808c-5.83-9.715-10.196-20.088-12.972-30.82
	l-0.035-0.133c-1.486-5.416-6.029-9.543-11.572-10.502l-30.556-5.2v-28.563l5.076-0.867l25.048-4.206
	c5.698-0.968,10.275-5.175,11.659-10.72c2.791-11.081,7.043-21.527,12.638-31.05c2.881-4.909,2.601-11.052-0.713-15.649
	l-18.013-25.321l20.248-20.246l24.951,17.791c4.654,3.278,10.889,3.504,15.88,0.574c9.708-5.829,20.08-10.195,30.819-12.972
	l0.135-0.035c5.414-1.487,9.541-6.031,10.501-11.572l5.2-30.556h28.576l5.057,30.128c0.969,5.695,5.178,10.273,10.725,11.66
	c11.17,2.811,21.847,7.192,31.739,13.022c4.91,2.883,11.118,2.603,15.818-0.706l24.848-17.863l20.243,20.242l-17.807,25.012
	c-3.338,4.634-3.595,10.86-0.658,15.866c5.674,9.525,9.987,19.904,12.817,30.844c1.404,5.617,5.961,9.818,11.612,10.713l30.341,5.13
	l0.004,26.228h-0.076v2.345l-30.363,5.06c-5.626,0.955-10.167,5.119-11.564,10.606c-2.846,11.002-7.183,21.443-12.892,31.036
	c-2.874,4.894-2.607,11.075,0.683,15.742l17.298,24.372c0.284,0.297,1.754,1.826,3.075,3.06l17.643-23.071
	c0.092-0.121,0.186-0.24,0.281-0.359l-9.539-13.391l1.543-3.236c2.272-4.768,4.275-9.588,5.953-14.327l1.2-3.384l23.14-3.856
	c12.954-2.174,22.358-13.292,22.358-26.436l-0.001-32.065c0.176-13.216-9.166-24.387-22.212-26.575l-23.148-3.928l-1.195-3.372
	c-1.733-4.883-3.73-9.709-5.935-14.344l-1.542-3.241l13.648-19.091c7.647-10.744,6.436-25.239-2.881-34.465l-22.815-22.814
	c-5.078-5.078-11.801-7.875-18.928-7.875c-5.614,0-10.962,1.715-15.464,4.959L327.09,54.183l-3.237-1.546
	c-5-2.389-10.125-4.501-15.234-6.278l-3.406-1.185l-3.849-22.805C299.188,9.407,288.07,0,274.926,0h-32.201
	c-13.143,0-24.259,9.395-26.432,22.338l-4.007,23.485l-3.344,1.203c-4.834,1.74-9.636,3.763-14.275,6.014l-3.269,1.585
	l-18.902-13.608c-4.534-3.264-9.924-4.99-15.587-4.99c-7.222,0-13.925,2.777-18.875,7.821l-22.927,22.85
	c-9.289,9.287-10.505,23.792-2.89,34.488l13.802,19.393l-1.514,3.223c-2.176,4.628-4.146,9.472-5.852,14.398l-1.183,3.412
	l-22.812,3.846c-12.964,2.174-22.372,13.292-22.372,26.437v32.201C72.286,217.239,81.68,228.356,94.624,230.529z M199.697,187.191
	c0,33.005,26.851,59.857,59.857,59.857c33.005,0,59.857-26.851,59.857-59.857c-0.001-33.006-26.853-59.858-59.857-59.858
	C226.549,127.333,199.697,154.185,199.697,187.191z M296.277,187.191c0,9.8-3.823,19.02-10.763,25.961
	c-6.941,6.942-16.161,10.764-25.963,10.764c-20.251,0-36.726-16.475-36.726-36.725c0-20.251,16.476-36.726,36.727-36.726
	C279.803,150.465,296.277,166.94,296.277,187.191z" class="color000 svgShape"/></svg></svg>