<?xml version="1.0" encoding="utf-8"?>
<!-- Generator: Adobe Illustrator 22.0.1, SVG Export Plug-In . SVG Version: 6.00 Build 0)  -->
<svg version="1.1" xmlns="http://www.w3.org/2000/svg" xmlns:xlink="http://www.w3.org/1999/xlink" x="0px" y="0px"
	 viewBox="0 0 97.5 122.628" enable-background="new 0 0 97.5 122.628" xml:space="preserve">
<path d="M95.99,54.472c0.973-1.012,1.51-2.367,1.51-3.813c0-1.448-0.537-2.804-1.511-3.816l-43.63-45.3
	c-0.961-1-2.244-1.547-3.611-1.543c-1.37-0.004-2.648,0.543-3.611,1.543L1.51,46.844C0.536,47.855,0,49.21,0,50.659
	c0,1.444,0.538,2.798,1.515,3.813l3.962,4.111c0.96,0.997,2.244,1.545,3.614,1.545c1.377,0,2.664-0.548,3.623-1.545l28.089-29.1
	l0.002,87.583c0,3.067,2.242,5.562,4.999,5.562h5.604c2.817,0,5.288-2.555,5.288-5.468V29.171l28.232,29.415
	c0.985,1.023,2.165,1.543,3.506,1.543c1.36,0,2.636-0.548,3.593-1.543L95.99,54.472z"/>
</svg>
