<svg xmlns="http://www.w3.org/2000/svg" xmlns:svgjs="http://svgjs.com/svgjs" xmlns:xlink="http://www.w3.org/1999/xlink" width="288" height="288"><svg xmlns="http://www.w3.org/2000/svg" width="288" height="288" enable-background="new 0 0 512 512" viewBox="0 0 512 512"><path fill="#fff" d="M496.996,419.004h-420c-8.285,0-15,6.715-15,15V497c0,8.285,6.715,15,15,15c8.281,0,15-6.715,15-15v-47.996h390V497
	c0,8.285,6.715,15,15,15s15-6.715,15-15v-62.996C511.996,425.719,505.281,419.004,496.996,419.004z M136.387,314.395
	c-5.855,5.855-5.855,15.355,0,21.211l74.004,74c2.926,2.93,6.766,4.395,10.605,4.395c3.836,0,7.676-1.465,10.605-4.395
	c5.855-5.855,5.855-15.355,0-21.211l-74-74C151.742,308.535,142.246,308.535,136.387,314.395z M387.891,349.895l-40.5,40.5
	c-5.859,5.855-5.859,15.355,0,21.211c2.93,2.93,6.766,4.395,10.605,4.395c3.836,0,7.676-1.465,10.605-4.395l40.5-40.5
	c5.859-5.855,5.859-15.355,0-21.211C403.246,344.035,393.746,344.035,387.891,349.895z M93.969,271.875
	c-5.855,5.859-5.855,15.355,0,21.215l4.375,4.375c2.93,2.93,6.77,4.395,10.605,4.395c3.84,0,7.68-1.465,10.605-4.395
	c5.859-5.855,5.859-15.355,0.004-21.211l-4.375-4.375C109.328,266.02,99.828,266.02,93.969,271.875z M176.996,182
	c0,2.52,0.629,4.891,1.727,6.977c0.012,0.023,0.016,0.043,0.027,0.066c0.012,0.016,0.02,0.031,0.027,0.051
	c0.02,0.031,0.035,0.063,0.051,0.094c5.297,9.961,29.277,54.906,31.934,59.879c2.605,4.883,7.691,7.934,13.23,7.934h18v91
	c0,8.285,6.715,15,15,15h15v27c0,8.285,6.719,15,15,15c8.285,0,15-6.715,15-15v-27h15c8.285,0,15-6.715,15-15v-91h17.988
	c5.543,0,10.637-3.059,13.242-7.953c0,0,27.715-51.973,31.941-59.863c0.016-0.027,0.031-0.055,0.043-0.086
	c0.004-0.004,0.008-0.012,0.012-0.016c0.129-0.242,0.23-0.457,0.313-0.656c0.93-1.949,1.465-4.125,1.465-6.426V60h41
	c8.281,0,15-6.719,15-15V15c0-8.285-6.719-15-15-15c-8.285,0-15,6.715-15,15v15H15C6.715,30,0,36.715,0,45c0,8.281,6.715,15,15,15
	h161.996V182z M301.992,333h-30v-76h30V333z M340.973,227H232.988c-1.238-2.324-14.586-27.355-16-30h139.98
	C356.664,197.574,344.887,219.645,340.973,227z M206.996,60h160v107h-160V60z" class="color000 svgShape"/></svg></svg>